<?xml version="1.0" encoding="utf-8"?>
<!-- Generator: Adobe Illustrator 16.0.0, SVG Export Plug-In . SVG Version: 6.00 Build 0)  -->
<!DOCTYPE svg PUBLIC "-//W3C//DTD SVG 1.1//EN" "http://www.w3.org/Graphics/SVG/1.1/DTD/svg11.dtd">
<svg version="1.1" id="图层_1" xmlns="http://www.w3.org/2000/svg" xmlns:xlink="http://www.w3.org/1999/xlink" x="0px" y="0px"
	 width="30px" height="30px" viewBox="17 17 30 30" enable-background="new 17 17 30 30" xml:space="preserve">
<path fill="#494949" d="M29.295,40.622c-4.1,0.192-7.414-1.863-7.414-4.599c0-2.738,3.314-4.936,7.414-5.124
	c4.101-0.188,7.422,1.501,7.422,4.234C36.717,37.869,33.396,40.437,29.295,40.622 M38.023,31.735
	c-0.975-0.188-0.501-0.714-0.501-0.714s0.952-1.569-0.188-2.711c-1.415-1.414-4.852,0.18-4.852,0.18
	c-1.313,0.408-0.965-0.186-0.779-1.195c0-1.189-0.408-3.203-3.904-2.014c-3.493,1.195-6.492,5.385-6.492,5.385
	c-2.086,2.782-1.81,4.935-1.81,4.935c0.521,4.749,5.566,6.053,9.491,6.361c4.13,0.324,9.702-1.423,11.393-5.013
	C42.07,33.353,38.999,31.93,38.023,31.735"/>
<path fill="#494949" d="M29.867,36.053c-0.262,0.195-0.582,0.169-0.72-0.065c-0.144-0.228-0.09-0.593,0.174-0.785
	c0.306-0.228,0.624-0.162,0.761,0.066C30.22,35.502,30.121,35.853,29.867,36.053 M27.436,38.123c-0.77,0.091-1.39-0.353-1.39-0.997
	c0-0.642,0.552-1.313,1.322-1.393c0.884-0.085,1.459,0.426,1.459,1.069C28.827,37.443,28.203,38.036,27.436,38.123 M28.477,32.703
	c-4.123,0.482-3.646,4.344-3.646,4.344s-0.042,1.224,1.105,1.847c2.412,1.307,4.896,0.516,6.151-1.105S32.605,32.224,28.477,32.703
	 M40.03,30.063c0.332,0,0.614-0.246,0.662-0.565c0.007-0.024,0.009-0.049,0.009-0.072c0.503-4.527-3.71-3.748-3.71-3.748
	c-0.374,0-0.673,0.303-0.673,0.68c0,0.371,0.299,0.674,0.673,0.674c3.027-0.668,2.358,2.357,2.358,2.357
	C39.35,29.764,39.654,30.063,40.03,30.063"/>
<path fill="#494949" d="M39.539,22.161c-1.457-0.341-2.955-0.047-3.375,0.034c-0.032,0.003-0.063,0.033-0.093,0.039
	c-0.014,0.003-0.022,0.018-0.022,0.018c-0.414,0.117-0.718,0.5-0.718,0.953c0,0.539,0.438,0.982,0.983,0.982
	c0,0,0.53-0.07,0.89-0.211c0.356-0.145,3.374-0.107,4.872,2.409c0.818,1.837,0.36,3.066,0.303,3.264c0,0-0.194,0.478-0.194,0.946
	c0,0.543,0.438,0.885,0.979,0.885c0.452,0,0.833-0.063,0.943-0.828h0.006C45.723,25.289,42.146,22.77,39.539,22.161"/>
</svg>
